<?xml version="1.0" encoding="utf-8"?>
<!-- Generator: Adobe Illustrator 25.2.1, SVG Export Plug-In . SVG Version: 6.00 Build 0)  -->
<svg version="1.1" id="Ebene_1" xmlns="http://www.w3.org/2000/svg" xmlns:xlink="http://www.w3.org/1999/xlink" x="0px" y="0px"
	 viewBox="0 0 845.7 187" style="enable-background:new 0 0 845.7 187;" xml:space="preserve">
<style type="text/css">
	.st0{fill:#007BFF;}
	.st1{fill:#FFFFFF;}
</style>
<path d="M809.5,158.5c-23.9,0-40-13.3-41.2-30.6h27.1c0.6,6.3,6.3,10.4,13.8,10.4c7.1,0,10.8-3.2,10.8-7.2c0-14.4-48.8-4-48.8-36.9
	c0-15.2,13-27.8,36.4-27.8c23.1,0,35.9,12.8,37.7,30.5H820c-0.8-6.1-5.5-10.1-13.2-10.1c-6.4,0-9.9,2.6-9.9,6.9
	c0,14.3,48.5,4.2,48.9,37.5C845.8,146.8,832,158.5,809.5,158.5z"/>
<path d="M308.7,159.2h-60V30.4h57.9c26.2,0,41.8,13,41.8,33.4c0,15.6-9.4,25.7-21.8,29.3c15,3.1,24.8,16.3,24.8,31
	C351.4,145.4,335.9,159.2,308.7,159.2z M300.6,55.6h-20.5v27h20.5c10.3,0,16-4.6,16-13.4C316.6,60.3,310.9,55.6,300.6,55.6z
	 M302.9,105.4h-22.7v28.4h23.1c10.5,0,16.5-4.8,16.5-13.9C319.7,110.8,313.3,105.4,302.9,105.4z"/>
<path d="M363.1,45.6c0-8.3,6.6-14.9,16.4-14.9c9.6,0,16.2,6.6,16.2,14.9c0,8.2-6.6,14.8-16.2,14.8C369.7,60.3,363.1,53.7,363.1,45.6
	z M365.7,69.6h27.4v89.5h-27.4V69.6z"/>
<path d="M418.3,92.4h-10.9V69.6h10.9V47.8h27.4v21.8h18v22.8h-18v35.9c0,5.3,2.2,7.5,8.3,7.5h9.8v23.3h-14
	c-18.6,0-31.6-7.9-31.6-31.1V92.4z"/>
<path d="M602.9,67.1c13.6,0,23.2,6.2,28.1,14.2V68.4h27.9v91.1H631v-12.9c-5.1,8-14.7,14.2-28.3,14.2c-22.2,0-40-18.3-40-47
	C562.7,85.1,580.5,67.1,602.9,67.1z M611.1,91.5c-10.5,0-19.9,7.8-19.9,22.4s9.5,22.7,19.9,22.7c10.6,0,19.9-8,19.9-22.5
	C631,99.5,621.7,91.5,611.1,91.5z"/>
<path d="M725.1,74c20.9,0,37.2,16.6,37.2,43.3c0,26.6-16.5,43.6-37.2,43.6c-12.4,0-21.3-5.6-26-13v11.8h-25.9V47.7H699v39.5
	C703.7,79.6,713,74,725.1,74z M717.3,96.6c-9.7,0-18.5,7.4-18.5,20.9c0,13.5,8.8,20.9,18.5,20.9c9.8,0,18.6-7.6,18.6-21
	S727.2,96.6,717.3,96.6z"/>
<path class="st0" d="M551.2,159.4h-66.4v-25.3h66.4c3.1,0,5.6,2.5,5.6,5.6v14.1C556.8,156.9,554.3,159.4,551.2,159.4z"/>
<path class="st0" d="M503.4,50.8h-18.7V25.4h18.7c3.1,0,5.6,2.5,5.6,5.6v14.1C509.1,48.3,506.6,50.8,503.4,50.8z"/>
<path class="st0" d="M510.3,123.2h-25.6V97.9h25.6c3.1,0,5.6,2.5,5.6,5.6v14.1C515.9,120.7,513.4,123.2,510.3,123.2z"/>
<path class="st0" d="M521.8,87h-37.1V61.7h37.1c3.1,0,5.6,2.5,5.6,5.6v14.1C527.4,84.5,524.9,87,521.8,87z"/>
<rect x="0.1" y="-0.4" class="st0" width="187" height="187"/>
<path class="st1" d="M151.6,141.7l-35.2-72.1v-39c0-2-1.6-3.7-3.7-3.7H74.4c-2,0-3.7,1.6-3.7,3.7v39l-35.2,72.1
	c-1.6,3.8-1.2,7.6,1.2,10.4c2.3,2.8,6.4,4.4,11.1,4.4h91.5c4.7,0,8.8-1.6,11.1-4.4C152.8,149.3,153.2,145.5,151.6,141.7z"/>
<polygon class="st0" points="117.9,103.4 117.9,103.4 117.9,103.4 "/>
<path class="st0" d="M138.1,138.7l-17.3-32.8l-14.4,25.7l-24.9-16.9l-25.4,17.7l-1.2-3.6l-0.6,0.4l-5.3,9.4
	c-1.2,2.1-1.1,4.6,0.1,6.7c1.2,2.1,3.5,3.3,5.9,3.3h77.1c2.4,0,4.7-1.2,5.9-3.3C139.3,143.3,139.3,140.8,138.1,138.7z"/>
<circle class="st1" cx="55.7" cy="126.5" r="8"/>
<circle class="st1" cx="104.3" cy="124.1" r="10"/>
<circle class="st1" cx="81.5" cy="108.5" r="7.5"/>
<circle class="st1" cx="117.8" cy="100.6" r="7.5"/>
<path class="st0" d="M117.8,96.4c-2.4,0-4.3,1.9-4.3,4.3c0,1.1,0.4,2,1,2.8l-8,14.3c-0.7-0.3-1.5-0.4-2.3-0.4
	c-1.7,0-3.2,0.6-4.4,1.7L85,109c0-0.1,0-0.3,0-0.4c0-2-1.6-3.6-3.6-3.6c-2,0-3.6,1.6-3.6,3.6c0,0.2,0,0.3,0,0.5l-19,13.4
	c-0.9-0.7-1.9-1.1-3.1-1.1c-2.8,0-5,2.3-5,5s2.3,5,5,5s5-2.3,5-5c0-0.5-0.1-1-0.2-1.4l18.8-13.4c0.6,0.4,1.3,0.6,2,0.6
	c0.8,0,1.5-0.2,2.1-0.7l14.5,9.8c-0.4,0.8-0.6,1.8-0.6,2.7c0,3.8,3,6.8,6.8,6.8c3.8,0,6.8-3,6.8-6.8c0-1.9-0.7-3.5-2-4.8l8-14.5
	c0.2,0,0.4,0.1,0.6,0.1c2.4,0,4.3-1.9,4.3-4.3C122.1,98.3,120.1,96.4,117.8,96.4z"/>
</svg>
