<svg xmlns="http://www.w3.org/2000/svg" viewBox="0 0 200 200">
  <defs>
    <linearGradient id="mg" x1="0%" y1="0%" x2="100%" y2="100%">
      <stop offset="0%" stop-color="#F5C400"/>
      <stop offset="100%" stop-color="#D4A800"/>
    </linearGradient>
  </defs>
  <rect width="200" height="200" rx="38" fill="#141000"/>
  <rect x="46" y="46" width="108" height="108" rx="16" fill="none" stroke="#F5C400" stroke-width="4.5"/>
  <rect x="62" y="62" width="76" height="76" rx="10" fill="url(#mg)"/>
  <rect x="30" y="70" width="16" height="10" rx="3.5" fill="#F5C400"/>
  <rect x="30" y="90" width="16" height="10" rx="3.5" fill="#F5C400"/>
  <rect x="30" y="110" width="16" height="10" rx="3.5" fill="#F5C400"/>
  <rect x="30" y="130" width="16" height="10" rx="3.5" fill="#F5C400"/>
  <rect x="154" y="70" width="16" height="10" rx="3.5" fill="#F5C400"/>
  <rect x="154" y="90" width="16" height="10" rx="3.5" fill="#F5C400"/>
  <rect x="154" y="110" width="16" height="10" rx="3.5" fill="#F5C400"/>
  <rect x="154" y="130" width="16" height="10" rx="3.5" fill="#F5C400"/>
  <rect x="70" y="30" width="10" height="16" rx="3.5" fill="#F5C400"/>
  <rect x="90" y="30" width="10" height="16" rx="3.5" fill="#F5C400"/>
  <rect x="110" y="30" width="10" height="16" rx="3.5" fill="#F5C400"/>
  <rect x="130" y="30" width="10" height="16" rx="3.5" fill="#F5C400"/>
  <rect x="70" y="154" width="10" height="16" rx="3.5" fill="#F5C400"/>
  <rect x="90" y="154" width="10" height="16" rx="3.5" fill="#F5C400"/>
  <rect x="110" y="154" width="10" height="16" rx="3.5" fill="#F5C400"/>
  <rect x="130" y="154" width="10" height="16" rx="3.5" fill="#F5C400"/>
  <text x="100" y="112" font-family="Arial Black, Arial" font-weight="900" font-size="28" fill="#141000" text-anchor="middle">MC</text>
</svg>
