<svg xmlns="http://www.w3.org/2000/svg" viewBox="0 0 200 200">
  <defs>
    <linearGradient id="tg1" x1="0%" y1="100%" x2="0%" y2="0%">
      <stop offset="0%" stop-color="#6A38FF"/>
      <stop offset="100%" stop-color="#BB69FF"/>
    </linearGradient>
    <linearGradient id="tg2" x1="0%" y1="0%" x2="0%" y2="100%">
      <stop offset="0%" stop-color="#8813BA"/>
      <stop offset="100%" stop-color="#8D40F7"/>
    </linearGradient>
  </defs>
  <rect width="200" height="200" rx="38" fill="#0e0820"/>
  <g transform="translate(27, 20) scale(2.78)">
    <path d="M30.535 18.0189C29.6624 18.5595 28.9418 19.3136 28.4414 20.2101C27.9409 21.1066 27.6771 22.1159 27.6748 23.1427L25.8161 38.0127C25.8019 38.1248 25.7473 38.2279 25.6626 38.3027C25.5778 38.3774 25.4687 38.4186 25.3557 38.4186C25.2427 38.4186 25.1336 38.3774 25.0489 38.3027C24.9641 38.2279 24.9096 38.1248 24.8954 38.0127L23.0366 23.1542C23.0371 22.1269 22.7745 21.1166 22.2738 20.2196C21.773 19.3226 21.051 18.5689 20.1764 18.0304L0 5.53833L1.20849 17.8694L10.9514 23.914C11.6242 24.3277 12.1799 24.9067 12.5657 25.5959C12.9515 26.2851 13.1545 27.0617 13.1555 27.8516L15.3135 49.9236C15.3577 50.372 15.5673 50.7879 15.9014 51.0902C16.2355 51.3924 16.6701 51.5594 17.1206 51.5584H33.6139C34.0637 51.5573 34.4972 51.3896 34.8308 51.0877C35.1645 50.7859 35.3746 50.3712 35.4209 49.9236L37.5789 27.8516C37.5771 27.0612 37.779 26.2836 38.165 25.5939C38.5511 24.9042 39.1083 24.3256 39.7829 23.914L49.5259 17.8694L50.7343 5.53833L30.535 18.0189Z" fill="url(#tg1)"/>
    <path fill-rule="evenodd" clip-rule="evenodd" d="M7.84957 0L0 5.53827L8.93724 11.0589L7.84957 0ZM1.54802 21.3521L9.48968 26.28C9.8034 26.4724 10.0678 26.7356 10.2616 27.0485C10.4555 27.3614 10.5735 27.7154 10.6061 28.0821L11.4751 36.913L3.5277 31.962C3.21503 31.7685 2.95149 31.505 2.75777 31.1924C2.56405 30.8798 2.44543 30.5265 2.41124 30.1602L1.54802 21.3521ZM42.8561 0L41.7742 11.0589L50.7114 5.53827L42.8561 0ZM49.169 21.3521L41.2215 26.28C40.9078 26.4724 40.6435 26.7356 40.4497 27.0485C40.2558 27.3615 40.1378 27.7154 40.1051 28.0821L39.2362 36.913L47.1836 31.962C47.4963 31.7685 47.7598 31.5051 47.9535 31.1924C48.1472 30.8798 48.2658 30.5265 48.3 30.1602L49.169 21.3521Z" fill="url(#tg2)"/>
  </g>
  <text x="100" y="188" font-family="Arial Black, Arial" font-weight="900" font-size="18" fill="#BB69FF" text-anchor="middle" letter-spacing="4">TOROX</text>
</svg>
