<svg xmlns="http://www.w3.org/2000/svg" viewBox="0 0 200 200">
  <rect width="200" height="200" rx="44" fill="#1e1e1e"/>
  <g transform="translate(38,28) scale(0.62)">
    <!-- Google Play icon — 4 colored segments of the triangle -->
    <path d="M0,12 L100,112 L19.5,192.5 C7,180 0,163 0,144 Z" fill="#4285F4"/>
    <path d="M0,12 C0,-8 22,-12 38,-3 L140,60 L100,112 Z" fill="#EA4335"/>
    <path d="M140,60 L192,91 C212,103 212,121 192,133 L140,164 L100,112 Z" fill="#FBBC05"/>
    <path d="M100,112 L140,164 L38,227 C22,236 0,232 0,212 L0,192 L19.5,192.5 Z" fill="#34A853"/>
  </g>
</svg>
